<svg xmlns="http://www.w3.org/2000/svg" xmlns:xlink="http://www.w3.org/1999/xlink" viewBox="0 0 48 48" focusable="false" preserveAspectRatio="xMidYMid meet" style="width: 100%; height: 100%; transform: translate3d(0px, 0px, 0px); content-visibility: visible;"><defs><clipPath id="__lottie_element_167"><rect width="48" height="48" x="0" y="0"></rect></clipPath><clipPath id="__lottie_element_169"><path d="M0,0 L960,0 L960,960 L0,960z"></path></clipPath><clipPath id="__lottie_element_186"><path fill="#ffffff" clip-rule="nonzero" d=" M561.9407348632812,219.72512817382812 C561.9407348632812,220.72512817382812 476.0710754394531,271.2251281738281 476.0710754394531,271.2251281738281 C476.0710754394531,271.2251281738281 695.3767700195312,469.8696594238281 695.3767700195312,469.8696594238281 C695.3767700195312,469.8696594238281 740.507080078125,420.4928894042969 740.507080078125,420.4928894042969 C740.507080078125,420.4928894042969 561.9407348632812,218.72512817382812 561.9407348632812,219.72512817382812" fill-opacity="1"></path></clipPath><clipPath id="__lottie_element_201"><path fill="#ffffff" clip-rule="nonzero" d=" M5.320000171661377,-29.694000244140625 C5.320000171661377,-29.694000244140625 5.320000171661377,-12.201000213623047 5.320000171661377,-12.201000213623047 C5.320000171661377,-12.201000213623047 36.5359992980957,-12.201000213623047 36.5359992980957,-12.201000213623047 C36.5359992980957,-12.201000213623047 36.5359992980957,-29.694000244140625 36.5359992980957,-29.694000244140625 C36.5359992980957,-29.694000244140625 5.320000171661377,-29.694000244140625 5.320000171661377,-29.694000244140625" fill-opacity="1"></path></clipPath><clipPath id="__lottie_element_214"><path fill="#ffffff" clip-rule="nonzero" d=" M-246.31199645996094,-311.1499938964844 C-246.31199645996094,-311.1499938964844 -246.31199645996094,17.702999114990234 -246.31199645996094,17.702999114990234 C-246.31199645996094,17.702999114990234 165.68800354003906,17.702999114990234 165.68800354003906,17.702999114990234 C165.68800354003906,17.702999114990234 165.68800354003906,-311.1499938964844 165.68800354003906,-311.1499938964844 C165.68800354003906,-311.1499938964844 -246.31199645996094,-311.1499938964844 -246.31199645996094,-311.1499938964844" fill-opacity="1"></path></clipPath><clipPath id="__lottie_element_226"><path fill="#ffffff" clip-rule="nonzero" d=" M-246.31199645996094,-311.1499938964844 C-246.31199645996094,-311.1499938964844 -246.31199645996094,17.702999114990234 -246.31199645996094,17.702999114990234 C-246.31199645996094,17.702999114990234 165.68800354003906,17.702999114990234 165.68800354003906,17.702999114990234 C165.68800354003906,17.702999114990234 165.68800354003906,-311.1499938964844 165.68800354003906,-311.1499938964844 C165.68800354003906,-311.1499938964844 -246.31199645996094,-311.1499938964844 -246.31199645996094,-311.1499938964844" fill-opacity="1"></path></clipPath></defs><g clip-path="url(#__lottie_element_167)"><g clip-path="url(#__lottie_element_169)" transform="matrix(0.05000000074505806,0,0,0.05000000074505806,0,0)" opacity="1" style="display: block;"><g transform="matrix(1,0,0,1,480,480)" opacity="1" style="display: block;"><g opacity="1" transform="matrix(1,0,0,1,0,0)"><path fill="rgb(234,234,234)" fill-opacity="1" d=" M0,-480 C264.9119873046875,-480 480,-264.9119873046875 480,0 C480,264.9119873046875 264.9119873046875,480 0,480 C-264.9119873046875,480 -480,264.9119873046875 -480,0 C-480,-264.9119873046875 -264.9119873046875,-480 0,-480z"></path><path stroke-linecap="butt" stroke-linejoin="miter" fill-opacity="0" stroke-miterlimit="4" stroke="rgb(0,204,190)" stroke-opacity="1" stroke-width="0" d=" M0,-480 C264.9119873046875,-480 480,-264.9119873046875 480,0 C480,264.9119873046875 264.9119873046875,480 0,480 C-264.9119873046875,480 -480,264.9119873046875 -480,0 C-480,-264.9119873046875 -264.9119873046875,-480 0,-480z"></path></g></g><g clip-path="url(#__lottie_element_226)" transform="matrix(-0.8175784945487976,0.5758171677589417,-0.5758171677589417,-0.8175784945487976,180.64210510253906,796.1542358398438)" opacity="1" style="display: block;"><g opacity="1" transform="matrix(1,0,0,1,-14.696999549865723,15.70300006866455)"><path stroke-linecap="butt" stroke-linejoin="miter" fill-opacity="0" stroke-miterlimit="1" stroke="rgb(145,167,167)" stroke-opacity="1" stroke-width="50" d=" M0,-110 C60.70899963378906,-110 110,-60.70899963378906 110,0 C110,60.70899963378906 60.70899963378906,110 0,110 C-60.70899963378906,110 -110,60.70899963378906 -110,0 C-110,-60.70899963378906 -60.70899963378906,-110 0,-110z"></path></g></g><g transform="matrix(1,0,0,1,198.31300354003906,759.1500244140625)" opacity="1" style="display: block;"><g opacity="1" transform="matrix(1,0,0,1,-14.696999549865723,15.70300006866455)"><path stroke-linecap="butt" stroke-linejoin="miter" fill-opacity="0" stroke-miterlimit="1" stroke="rgb(69,0,100)" stroke-opacity="1" stroke-width="50" d=" M0,-160 C88.30400085449219,-160 160,-88.30400085449219 160,0 C160,88.30400085449219 88.30400085449219,160 0,160 C-88.30400085449219,160 -160,88.30400085449219 -160,0 C-160,-88.30400085449219 -88.30400085449219,-160 0,-160z"></path></g></g><g transform="matrix(1,0,0,1,480,480)" opacity="1" style="display: block;"><g opacity="1" transform="matrix(1,0,0,1,0,0)"><path fill="rgb(69,0,100)" fill-opacity="1" d=" M-131.49241638183594,-108.50379180908203 C-131.49241638183594,-108.50379180908203 -193,-114.5 -221,-39.5 C-247.24600219726562,30.802000045776367 -184.9987335205078,56.002525329589844 -109.50252532958984,72.51641845703125 C-109.50252532958984,73.01641845703125 8.484847068786621,100.04167175292969 8.484847068786621,100.04167175292969 C8.484847068786621,100.04167175292969 24.994949340820312,221.06187438964844 29.994949340820312,261.5618591308594 C36.68294906616211,315.7328796386719 109.65126037597656,322.06256103515625 105.50126647949219,266.5555725097656 C101.50126647949219,213.05555725097656 92.78089904785156,98.49362182617188 91.48989868164062,82.03662109375 C89.48989868164062,56.53662109375 87.48698425292969,38.540889739990234 61.489898681640625,22.036619186401367 C29.948863983154297,2.0134119987487793 -131.49241638183594,-108.50379180908203 -131.49241638183594,-108.50379180908203z"></path></g></g><g transform="matrix(0.8386181592941284,-0.544605016708374,0.544605016708374,0.8386181592941284,177.66098022460938,569.9013671875)" opacity="1" style="display: block;"><g opacity="1" transform="matrix(1,0,0,1,0,0)"><path fill="rgb(69,0,100)" fill-opacity="1" d=" M245.25,302 C245.25,302 131.468994140625,362.56201171875 205.718994140625,393.06201171875 C207.781005859375,394 209.5,394.75 209.5,394.75 C209.5,394.75 264,416.75 264,416.75 C264,416.75 308.75,439 321.5,414.25 C334.25,389.5 317.75,372 310.75,364 C303.75,356 245.25,302 245.25,302z"></path></g></g><g clip-path="url(#__lottie_element_214)" transform="matrix(-0.8175784945487976,0.5758171677589417,-0.5758171677589417,-0.8175784945487976,772.6421508789062,796.1542358398438)" opacity="1" style="display: block;"><g opacity="1" transform="matrix(1,0,0,1,-14.696999549865723,15.70300006866455)"><path stroke-linecap="butt" stroke-linejoin="miter" fill-opacity="0" stroke-miterlimit="1" stroke="rgb(145,167,167)" stroke-opacity="1" stroke-width="50" d=" M0,-110 C60.70899963378906,-110 110,-60.70899963378906 110,0 C110,60.70899963378906 60.70899963378906,110 0,110 C-60.70899963378906,110 -110,60.70899963378906 -110,0 C-110,-60.70899963378906 -60.70899963378906,-110 0,-110z"></path></g></g><g transform="matrix(1,0,0,1,790.31201171875,759.1500244140625)" opacity="1" style="display: block;"><g opacity="1" transform="matrix(1,0,0,1,-14.696999549865723,15.70300006866455)"><path stroke-linecap="butt" stroke-linejoin="miter" fill-opacity="0" stroke-miterlimit="1" stroke="rgb(69,0,100)" stroke-opacity="1" stroke-width="50" d=" M0,-160 C88.30400085449219,-160 160,-88.30400085449219 160,0 C160,88.30400085449219 88.30400085449219,160 0,160 C-88.30400085449219,160 -160,88.30400085449219 -160,0 C-160,-88.30400085449219 -88.30400085449219,-160 0,-160z"></path></g></g><g transform="matrix(18.75,0,0,18.75,480,510)" opacity="1" style="display: block;"><g opacity="1" transform="matrix(1,0,0,1,0,0)"><path stroke-linecap="round" stroke-linejoin="round" fill-opacity="0" stroke="rgb(251,80,88)" stroke-opacity="1" stroke-width="2.5" d=" M1,15.399999618530273 C1,15.399999618530273 -15.600000381469727,14.119999885559082 -15.600000381469727,14.119999885559082 C-15.600000381469727,14.119999885559082 -7.199999809265137,1.399999976158142 -7.199999809265137,1.399999976158142"></path></g></g><g transform="matrix(1,0,0,1,478,483)" opacity="1" style="display: block;"><g opacity="1" transform="matrix(1,0,0,1,0,0)"><path fill="rgb(145,167,167)" fill-opacity="1" d=" M-20.86174201965332,-294 C-20.86174201965332,-294 -21.88174057006836,-289.5119934082031 -29.11174201965332,-290.25 C-75.61174011230469,-295 -210.31199645996094,-79.71900177001953 -210.31199645996094,-79.68800354003906 C-210.31199645996094,-79.65699768066406 -2.119476795196533,-79.93800354003906 -2.119476795196533,-79.93800354003906 C-2.119476795196533,-79.93800354003906 102.01262664794922,-251.75 102.01262664794922,-251.75 C102.01262664794922,-251.75 -20.86174201965332,-294 -20.86174201965332,-294z"></path></g></g><g transform="matrix(15.46875,0,0,15.46875,462.583740234375,352.7896728515625)" opacity="1" style="display: block;"><g opacity="1" transform="matrix(1,0,0,1,7.244999885559082,-14.244000434875488)"><path fill="rgb(255,153,102)" fill-opacity="1" d=" M0,-5.071499824523926 C2.7989606857299805,-5.071499824523926 5.071499824523926,-2.7989606857299805 5.071499824523926,0 C5.071499824523926,2.7989606857299805 2.7989606857299805,5.071499824523926 0,5.071499824523926 C-2.7989606857299805,5.071499824523926 -5.071499824523926,2.7989606857299805 -5.071499824523926,0 C-5.071499824523926,-2.7989606857299805 -2.7989606857299805,-5.071499824523926 0,-5.071499824523926z"></path></g><g opacity="1" transform="matrix(1,0,0,1,0,0)"><path fill="rgb(145,167,167)" fill-opacity="1" d=" M0.25999999046325684,-12.947999954223633 C0.25999999046325684,-12.947999954223633 -1.3559999465942383,-6.9679999351501465 -1.3559999465942383,-6.9679999351501465 C-1.3559999465942383,-6.9679999351501465 6.886000156402588,-3.4130001068115234 6.886000156402588,-3.4130001068115234 C6.886000156402588,-3.4130001068115234 12.380999565124512,-8.100000381469727 12.380999565124512,-8.100000381469727 C12.380999565124512,-8.100000381469727 0.25999999046325684,-12.947999954223633 0.25999999046325684,-12.947999954223633z"></path><path stroke-linecap="butt" stroke-linejoin="miter" fill-opacity="0" stroke-miterlimit="4" stroke="rgb(0,135,138)" stroke-opacity="1" stroke-width="0" d=" M0.25999999046325684,-12.947999954223633 C0.25999999046325684,-12.947999954223633 -1.3559999465942383,-6.9679999351501465 -1.3559999465942383,-6.9679999351501465 C-1.3559999465942383,-6.9679999351501465 6.886000156402588,-3.4130001068115234 6.886000156402588,-3.4130001068115234 C6.886000156402588,-3.4130001068115234 12.380999565124512,-8.100000381469727 12.380999565124512,-8.100000381469727 C12.380999565124512,-8.100000381469727 0.25999999046325684,-12.947999954223633 0.25999999046325684,-12.947999954223633z"></path></g></g><g clip-path="url(#__lottie_element_201)" transform="matrix(14.941664695739746,4.003607273101807,-4.003607273101807,14.941664695739746,155.92779541015625,194.90701293945312)" opacity="1" style="display: block;"><g opacity="1" transform="matrix(1,0,0,1,24.858999252319336,-12.279000282287598)"><path fill="rgb(156,0,109)" fill-opacity="1" d=" M0,-7 C3.863300085067749,-7 7,-3.863300085067749 7,0 C7,3.863300085067749 3.863300085067749,7 0,7 C-3.863300085067749,7 -7,3.863300085067749 -7,0 C-7,-3.863300085067749 -3.863300085067749,-7 0,-7z"></path></g></g><g transform="matrix(18.75,0,0,18.75,480,510)" opacity="1" style="display: block;"><g opacity="1" transform="matrix(1,0,0,1,0,0)"><path stroke-linecap="round" stroke-linejoin="round" fill-opacity="0" stroke="rgb(251,80,88)" stroke-opacity="1" stroke-width="2.5" d=" M10,1.399999976158142 C10,1.399999976158142 -7.199999809265137,1.399999976158142 -7.199999809265137,1.399999976158142 C-7.199999809265137,1.399999976158142 -1.1330000162124634,15.199999809265137 -1.1330000162124634,15.199999809265137 C-1.1330000162124634,15.199999809265137 10,1.399999976158142 10,1.399999976158142z"></path></g></g><g transform="matrix(9.375,0,0,9.375,431.1875,510)" opacity="1" style="display: block;"><g opacity="1" transform="matrix(1,0,0,1,4.111999988555908,30.11199951171875)"><path fill="rgb(145,167,167)" fill-opacity="1" d=" M0,-8 C4.415200233459473,-8 8,-4.415200233459473 8,0 C8,4.415200233459473 4.415200233459473,8 0,8 C-4.415200233459473,8 -8,4.415200233459473 -8,0 C-8,-4.415200233459473 -4.415200233459473,-8 0,-8z"></path><path stroke-linecap="butt" stroke-linejoin="miter" fill-opacity="0" stroke-miterlimit="4" stroke="rgb(69,0,100)" stroke-opacity="1" stroke-width="0" d=" M0,-8 C4.415200233459473,-8 8,-4.415200233459473 8,0 C8,4.415200233459473 4.415200233459473,8 0,8 C-4.415200233459473,8 -8,4.415200233459473 -8,0 C-8,-4.415200233459473 -4.415200233459473,-8 0,-8z"></path></g></g><g transform="matrix(0.9971868395805359,0.07495599240064621,-0.07495599240064621,0.9971868395805359,383.9673156738281,302.28948974609375)" opacity="1" style="display: block;"><g opacity="1" transform="matrix(0.8191520571708679,0.5735764503479004,-0.5735764503479004,0.8191520571708679,0,0)"><path fill="rgb(0,126,138)" fill-opacity="1" d=" M-30,-130 C-30,-130 -30,160 -30,160 C-30,160 -320,160 -320,160 C-320,160 -320,-130 -320,-130 C-320,-130 -30,-130 -30,-130z"></path></g></g><g clip-path="url(#__lottie_element_186)" transform="matrix(1,0,0,1,0,0)" opacity="1" style="display: block;"><rect width="960" height="960" fill="#91a7a7"></rect></g><g transform="matrix(0.7071067690849304,-0.7071067690849304,0.7071067690849304,0.7071067690849304,726.5398559570312,495.80938720703125)" opacity="1" style="display: block;"><g opacity="1" transform="matrix(1,0,0,1,25.917999267578125,-11.071000099182129)"><path fill="rgb(255,153,102)" fill-opacity="1" d=" M50,-20 C50,-20 50,20 50,20 C50,36.55699920654297 36.55699920654297,50 20,50 C20,50 -20,50 -20,50 C-36.55699920654297,50 -50,36.55699920654297 -50,20 C-50,20 -50,-20 -50,-20 C-50,-36.55699920654297 -36.55699920654297,-50 -20,-50 C-20,-50 20,-50 20,-50 C36.55699920654297,-50 50,-36.55699920654297 50,-20z"></path></g></g><g transform="matrix(18.75,0,0,18.75,480,510)" opacity="1" style="display: block;"><g opacity="1" transform="matrix(1,0,0,1,0,0)"><path stroke-linecap="round" stroke-linejoin="round" fill-opacity="0" stroke="rgb(251,80,88)" stroke-opacity="1" stroke-width="2.5" d=" M15.746999740600586,14.079999923706055 C15.746999740600586,14.079999923706055 9.600000381469727,-2.2119998931884766 9.600000381469727,-2.2119998931884766 C9.600000381469727,-2.2119998931884766 12.666999816894531,-2.4579999446868896 12.666999816894531,-2.4579999446868896"></path></g></g><g transform="matrix(0.9505223631858826,-0.3104550540447235,0.3104550540447235,0.9505223631858826,64.43931579589844,558.3974609375)" opacity="1" style="display: block;"><g opacity="1" transform="matrix(1,0,0,1,0,0)"><path fill="rgb(0,126,138)" fill-opacity="1" d=" M245.25,302 C245.25,302 131.468994140625,362.56201171875 205.718994140625,393.06201171875 C207.781005859375,394 209.5,394.75 209.5,394.75 C209.5,394.75 264,416.75 264,416.75 C264,416.75 308.75,439 321.5,414.25 C334.25,389.5 317.75,372 310.75,364 C303.75,356 245.25,302 245.25,302z"></path></g></g><g transform="matrix(1,0,0,1,480,480)" opacity="1" style="display: block;"><g opacity="1" transform="matrix(1,0,0,1,-0.1509999930858612,0.07000000029802322)"><path fill="rgb(0,126,138)" fill-opacity="1" d=" M-2.5385422706604004,-79.53414154052734 C-2.5385422706604004,-79.53414154052734 -211.19435119628906,-80.17640686035156 -211.44435119628906,-79.42640686035156 C-259.00506591796875,-1.4968432188034058 -208.98358154296875,42.01515197753906 -208.98358154296875,42.01515197753906 C-208.98358154296875,42.01515197753906 -82.99191284179688,167.21011352539062 -82.99191284179688,167.21011352539062 C-82.99191284179688,167.21011352539062 -133.04678344726562,333.8412780761719 -133.04678344726562,334.8412780761719 C-150.2635498046875,387.9441223144531 -81.27020263671875,412.1906433105469 -62.05038070678711,360.0196838378906 C-48.00568389892578,322.44317626953125 -1.3566726446151733,197.09173583984375 8.99798583984375,172.3445587158203 C17.640865325927734,144.84181213378906 10.059731483459473,134.49232482910156 10.059731483459473,134.49232482910156 C10.059731483459473,134.49232482910156 -51.54299545288086,1.8012140989303589 -51.54299545288086,1.8012140989303589 C-51.54299545288086,1.8012140989303589 -2.5385422706604004,-79.53414154052734 -2.5385422706604004,-79.53414154052734z"></path></g></g></g></g></svg>