<svg xmlns="http://www.w3.org/2000/svg" xmlns:xlink="http://www.w3.org/1999/xlink" viewBox="0 0 48 48" focusable="false" preserveAspectRatio="xMidYMid meet" style="width: 100%; height: 100%; transform: translate3d(0px, 0px, 0px); content-visibility: visible;"><defs><clipPath id="__lottie_element_117"><rect width="48" height="48" x="0" y="0"></rect></clipPath><clipPath id="__lottie_element_119"><path d="M0,0 L960,0 L960,960 L0,960z"></path></clipPath><g id="__lottie_element_122"><g transform="matrix(1,0,0,1,480,480)" opacity="1" style="display: block;"><g opacity="1" transform="matrix(1,0,0,1,0,0)"><path fill="rgb(0,126,138)" fill-opacity="1" d=" M0,-480 C264.9119873046875,-480 480,-264.9119873046875 480,0 C480,264.9119873046875 264.9119873046875,480 0,480 C-264.9119873046875,480 -480,264.9119873046875 -480,0 C-480,-264.9119873046875 -264.9119873046875,-480 0,-480z"></path><path stroke-linecap="butt" stroke-linejoin="miter" fill-opacity="0" stroke-miterlimit="4" stroke="rgb(0,204,190)" stroke-opacity="1" stroke-width="0" d=" M0,-480 C264.9119873046875,-480 480,-264.9119873046875 480,0 C480,264.9119873046875 264.9119873046875,480 0,480 C-264.9119873046875,480 -480,264.9119873046875 -480,0 C-480,-264.9119873046875 -264.9119873046875,-480 0,-480z"></path></g><g opacity="1" transform="matrix(1,0,0,1,142.156005859375,295.0469970703125)"><path fill="rgb(0,126,138)" fill-opacity="1" d=" M686.156005859375,-300.9530029296875 C686.156005859375,-300.9530029296875 686.156005859375,300.9530029296875 686.156005859375,300.9530029296875 C686.156005859375,300.9530029296875 -686.156005859375,300.9530029296875 -686.156005859375,300.9530029296875 C-686.156005859375,300.9530029296875 -686.156005859375,-300.9530029296875 -686.156005859375,-300.9530029296875 C-686.156005859375,-300.9530029296875 686.156005859375,-300.9530029296875 686.156005859375,-300.9530029296875z"></path><path stroke-linecap="butt" stroke-linejoin="miter" fill-opacity="0" stroke-miterlimit="4" stroke="rgb(0,204,190)" stroke-opacity="1" stroke-width="0" d=" M686.156005859375,-300.9530029296875 C686.156005859375,-300.9530029296875 686.156005859375,300.9530029296875 686.156005859375,300.9530029296875 C686.156005859375,300.9530029296875 -686.156005859375,300.9530029296875 -686.156005859375,300.9530029296875 C-686.156005859375,300.9530029296875 -686.156005859375,-300.9530029296875 -686.156005859375,-300.9530029296875 C-686.156005859375,-300.9530029296875 686.156005859375,-300.9530029296875 686.156005859375,-300.9530029296875z"></path></g></g></g><clipPath id="__lottie_element_126"><path d="M0,0 L960,0 L960,1200 L0,1200z"></path></clipPath><mask id="__lottie_element_130"><path fill="#ffffff" clip-rule="nonzero" d=" M526.0150146484375,640.7169799804688 C526.0150146484375,640.7169799804688 488.74798583984375,495.2340087890625 488.74798583984375,495.2340087890625 C488.74798583984375,495.2340087890625 401.31500244140625,521.0339965820312 401.31500244140625,521.0339965820312 C401.31500244140625,521.0339965820312 436.4320068359375,658.6339721679688 436.4320068359375,658.6339721679688 C436.4320068359375,658.6339721679688 305.9989929199219,689.4500122070312 305.9989929199219,689.4500122070312 C305.9989929199219,689.4500122070312 336.8160095214844,802.6829833984375 336.8160095214844,802.6829833984375 C336.8160095214844,802.6829833984375 568.2990112304688,842.0999755859375 568.2990112304688,842.0999755859375 C568.2990112304688,842.0999755859375 617.7490234375,722.416015625 617.7490234375,722.416015625 C617.7490234375,722.416015625 630.6500244140625,480.1839904785156 630.6500244140625,480.1839904785156 C630.6500244140625,480.1839904785156 540.3499755859375,468 540.3499755859375,468 C540.3499755859375,468 526.0150146484375,640.7169799804688 526.0150146484375,640.7169799804688" fill-opacity="1"></path><path fill="#000000" clip-rule="nonzero" d=" M453.6310119628906,713.0999755859375 C450.0480041503906,710.2340087890625 448.614013671875,706.6500244140625 448.614013671875,702.3499755859375 C448.614013671875,698.0499877929688 450.0480041503906,694.4669799804688 453.6310119628906,691.5999755859375 C455.7799987792969,688.7340087890625 458.6470031738281,687.301025390625 462.947998046875,686.583984375 C467.2489929199219,686.583984375 470.8320007324219,687.2999877929688 474.4150085449219,690.1669921875 C476.56500244140625,693.75 477.9989929199219,697.333984375 478.7149963378906,701.6339721679688 C479.4309997558594,705.9340209960938 478.7149963378906,709.5170288085938 475.8479919433594,712.3839721679688 C473.697998046875,715.9669799804688 470.114013671875,717.4000244140625 465.0979919433594,717.4000244140625 C460.7980041503906,717.4000244140625 456.49798583984375,715.9669799804688 453.6310119628906,713.0999755859375" fill-opacity="1"></path><path fill="#000000" clip-rule="nonzero" d=" M546.7979736328125,707.3670043945312 C546.7979736328125,711.6669921875 545.364013671875,715.2509765625 542.4979858398438,717.4010009765625 C539.6309814453125,720.9840087890625 536.0479736328125,723.1339721679688 531.031005859375,723.1339721679688 C527.447998046875,722.4180297851562 523.864013671875,720.9840087890625 520.9979858398438,718.1170043945312 C518.1309814453125,715.9669799804688 516.697998046875,712.3839721679688 515.9819946289062,707.3670043945312 C515.2650146484375,703.7839965820312 515.9819946289062,700.2000122070312 518.8489990234375,696.6170043945312 C521.7160034179688,694.4669799804688 526.0150146484375,693.0339965820312 531.031005859375,693.0339965820312 C535.3319702148438,693.0339965820312 538.9149780273438,694.4669799804688 541.0650024414062,696.6170043945312 C543.9310302734375,700.2000122070312 546.0819702148438,703.7839965820312 546.7979736328125,707.3670043945312" fill-opacity="1"></path></mask><clipPath id="__lottie_element_139"><path d="M0,0 L960,0 L960,960 L0,960z"></path></clipPath><mask id="__lottie_element_122_1" mask-type="alpha"><use xmlns:ns1="http://www.w3.org/1999/xlink" ns1:href="#__lottie_element_122"></use></mask></defs><g clip-path="url(#__lottie_element_117)"><g clip-path="url(#__lottie_element_119)" transform="matrix(0.05000000074505806,0,0,0.05000000074505806,0,0)" opacity="1" style="display: block;"><g transform="matrix(1,0,0,1,480,480)" opacity="1" style="display: block;"><g opacity="1" transform="matrix(1,0,0,1,0,0)"><path fill="rgb(234,234,234)" fill-opacity="1" d=" M0,-480 C264.9119873046875,-480 480,-264.9119873046875 480,0 C480,264.9119873046875 264.9119873046875,480 0,480 C-264.9119873046875,480 -480,264.9119873046875 -480,0 C-480,-264.9119873046875 -264.9119873046875,-480 0,-480z"></path><path stroke-linecap="butt" stroke-linejoin="miter" fill-opacity="0" stroke-miterlimit="4" stroke="rgb(0,204,190)" stroke-opacity="1" stroke-width="0" d=" M0,-480 C264.9119873046875,-480 480,-264.9119873046875 480,0 C480,264.9119873046875 264.9119873046875,480 0,480 C-264.9119873046875,480 -480,264.9119873046875 -480,0 C-480,-264.9119873046875 -264.9119873046875,-480 0,-480z"></path></g></g><g mask="url(#__lottie_element_122_1)" style="display: block;"><g clip-path="url(#__lottie_element_126)" transform="matrix(0.9369713068008423,-0.1567952185869217,0.1567952185869217,0.9369713068008423,25.014617919921875,-93.11957550048828)" opacity="1"><g transform="matrix(1,0,0,1,472,628)" opacity="1" style="display: block;"><g opacity="1" transform="matrix(1,0,0,1,8,-56)"><path stroke-linecap="butt" stroke-linejoin="miter" fill-opacity="0" stroke-miterlimit="4" stroke="rgb(0,204,190)" stroke-opacity="1" stroke-width="65" d=" M150,-150 C150,-150 150,150 150,150 C150,150 -150,150 -150,150 C-150,150 -150,-150 -150,-150 C-150,-150 150,-150 150,-150z"></path></g></g><g clip-path="url(#__lottie_element_139)" transform="matrix(1,0,0,1,-4,-160)" opacity="1" style="display: block;"><g transform="matrix(1,0,0,1,480,840)" opacity="1" style="display: block;"><g opacity="1" transform="matrix(1,0,0,1,0,0)"><path stroke-linecap="round" stroke-linejoin="miter" fill-opacity="0" stroke-miterlimit="4" stroke="rgb(255,153,102)" stroke-opacity="1" stroke-width="51" d=" M50,-160 C50,-160 50,-332 50,-332 C50,-332 28,-424 28,-424 C28,-424 28,-526 28,-526"></path></g></g><g transform="matrix(1,0,0,1,430,840)" opacity="1" style="display: block;"><g opacity="1" transform="matrix(1,0,0,1,0,0)"><path stroke-linecap="round" stroke-linejoin="miter" fill-opacity="0" stroke-miterlimit="4" stroke="rgb(255,153,102)" stroke-opacity="1" stroke-width="51" d=" M50,-160 C50,-160 50,-332 50,-332 C50,-332 28,-424 28,-424 C28,-424 28,-526 28,-526"></path></g></g><g transform="matrix(1,0,0,1,430,840)" opacity="1" style="display: block;"><g opacity="1" transform="matrix(1,0,0,1,0,0)"><path stroke-linecap="square" stroke-linejoin="round" fill-opacity="0" stroke="rgb(255,153,102)" stroke-opacity="1" stroke-width="55" d=" M-46,-316 C-46,-316 -46,-332 -46,-332 C-46,-332 28,-424 28,-424 C28,-424 28,-526 28,-526"></path></g></g><g transform="matrix(1,0,0,1,430,840)" opacity="1" style="display: block;"><g opacity="1" transform="matrix(1,0,0,1,0,0)"><path stroke-linecap="round" stroke-linejoin="miter" fill-opacity="0" stroke-miterlimit="4" stroke="rgb(255,153,102)" stroke-opacity="1" stroke-width="50" d=" M2,-160 C2,-160 2,-332 2,-332 C2,-332 28,-424 28,-424 C28,-424 28,-526 28,-526"></path></g></g><g transform="matrix(1,0,0,1,480,840)" opacity="1" style="display: block;"><g opacity="1" transform="matrix(1,0,0,1,0,0)"><path stroke-linecap="round" stroke-linejoin="miter" fill-opacity="0" stroke-miterlimit="4" stroke="rgb(255,153,102)" stroke-opacity="1" stroke-width="50" d=" M98,-160 C98,-160 98,-332 98,-332 C98,-332 68,-424 68,-424 C68,-424 68,-526 68,-526"></path></g></g><g transform="matrix(1,0,0,1,480,560)" opacity="1" style="display: block;"><g opacity="1" transform="matrix(1,0,0,1,0,0)"><path fill="rgb(0,126,137)" fill-opacity="1" d=" M20,-156 C20,-156 20,-500 20,-500"></path><path stroke-linecap="butt" stroke-linejoin="miter" fill-opacity="0" stroke-miterlimit="4" stroke="rgb(251,80,88)" stroke-opacity="1" stroke-width="200" d=" M20,-156 C20,-156 20,-500 20,-500"></path></g></g></g><g transform="matrix(1,0,0,1,472,904)" opacity="1" style="display: block;"><g opacity="1" transform="matrix(1,0,0,1,8,-56)"><path fill="rgb(0,204,190)" fill-opacity="1" d=" M321.5,-265.5 C321.5,-265.5 321.5,265.5 321.5,265.5 C321.5,265.5 -321.5,265.5 -321.5,265.5 C-321.5,265.5 -321.5,-265.5 -321.5,-265.5 C-321.5,-265.5 321.5,-265.5 321.5,-265.5z"></path><path stroke-linecap="butt" stroke-linejoin="miter" fill-opacity="0" stroke-miterlimit="4" stroke="rgb(0,204,190)" stroke-opacity="1" stroke-width="0" d=" M321.5,-265.5 C321.5,-265.5 321.5,265.5 321.5,265.5 C321.5,265.5 -321.5,265.5 -321.5,265.5 C-321.5,265.5 -321.5,-265.5 -321.5,-265.5 C-321.5,-265.5 321.5,-265.5 321.5,-265.5z"></path></g></g><g transform="matrix(1,0,0,1,480,640)" opacity="1" style="display: block;"></g><g mask="url(#__lottie_element_130)" transform="matrix(0.800000011920929,0,0,0.800000011920929,100,324)" opacity="1" style="display: block;"><rect width="960" height="960" fill="#ffffff"></rect></g></g></g></g></g></svg>